G04 #@! TF.GenerationSoftware,KiCad,Pcbnew,5.1.10-88a1d61d58~90~ubuntu20.04.1*
G04 #@! TF.CreationDate,2021-08-20T19:04:53-03:00*
G04 #@! TF.ProjectId,003_Raspberry_Pi_HAT,3030335f-5261-4737-9062-657272795f50,V1*
G04 #@! TF.SameCoordinates,Original*
G04 #@! TF.FileFunction,Legend,Top*
G04 #@! TF.FilePolarity,Positive*
%FSLAX46Y46*%
G04 Gerber Fmt 4.6, Leading zero omitted, Abs format (unit mm)*
G04 Created by KiCad (PCBNEW 5.1.10-88a1d61d58~90~ubuntu20.04.1) date 2021-08-20 19:04:53*
%MOMM*%
%LPD*%
G01*
G04 APERTURE LIST*
%ADD10C,0.150000*%
%ADD11C,0.120000*%
%ADD12C,0.203200*%
G04 APERTURE END LIST*
D10*
X125587095Y-109497761D02*
X125491857Y-109545380D01*
X125301380Y-109545380D01*
X125206142Y-109497761D01*
X125158523Y-109450142D01*
X125110904Y-109354904D01*
X125110904Y-109069190D01*
X125158523Y-108973952D01*
X125206142Y-108926333D01*
X125301380Y-108878714D01*
X125491857Y-108878714D01*
X125587095Y-108926333D01*
X125460095Y-113053761D02*
X125364857Y-113101380D01*
X125174380Y-113101380D01*
X125079142Y-113053761D01*
X125031523Y-113006142D01*
X124983904Y-112910904D01*
X124983904Y-112625190D01*
X125031523Y-112529952D01*
X125079142Y-112482333D01*
X125174380Y-112434714D01*
X125364857Y-112434714D01*
X125460095Y-112482333D01*
D11*
X128078500Y-110292000D02*
X125393500Y-110292000D01*
X125393500Y-110292000D02*
X125393500Y-112212000D01*
X125393500Y-112212000D02*
X128078500Y-112212000D01*
X125393500Y-108656000D02*
X128078500Y-108656000D01*
X125393500Y-106736000D02*
X125393500Y-108656000D01*
X128078500Y-106736000D02*
X125393500Y-106736000D01*
X111175436Y-109193000D02*
X111629564Y-109193000D01*
X111175436Y-107723000D02*
X111629564Y-107723000D01*
X116763436Y-107723000D02*
X117217564Y-107723000D01*
X116763436Y-109193000D02*
X117217564Y-109193000D01*
X123520564Y-110517000D02*
X123066436Y-110517000D01*
X123520564Y-111987000D02*
X123066436Y-111987000D01*
X123567564Y-108431000D02*
X123113436Y-108431000D01*
X123567564Y-106961000D02*
X123113436Y-106961000D01*
D12*
X113665000Y-111252000D02*
X109347000Y-111252000D01*
X109347000Y-117348000D02*
X113665000Y-117348000D01*
X114554000Y-113304320D02*
X114554000Y-115316000D01*
X108458000Y-113273840D02*
X108458000Y-115316000D01*
X113284000Y-114300000D02*
G75*
G03*
X113284000Y-114300000I-1778000J0D01*
G01*
D11*
X127822000Y-114748000D02*
X127822000Y-116078000D01*
X126492000Y-114748000D02*
X127822000Y-114748000D01*
X125222000Y-114748000D02*
X125222000Y-117408000D01*
X125222000Y-117408000D02*
X117542000Y-117408000D01*
X125222000Y-114748000D02*
X117542000Y-114748000D01*
X117542000Y-114748000D02*
X117542000Y-117408000D01*
X107890000Y-104962000D02*
X107890000Y-103632000D01*
X109220000Y-104962000D02*
X107890000Y-104962000D01*
X107890000Y-102362000D02*
X107890000Y-99762000D01*
X110490000Y-102362000D02*
X107890000Y-102362000D01*
X110490000Y-104962000D02*
X110490000Y-102362000D01*
X107890000Y-99762000D02*
X128330000Y-99762000D01*
X110490000Y-104962000D02*
X128330000Y-104962000D01*
X128330000Y-104962000D02*
X128330000Y-99762000D01*
D10*
X126340404Y-110054380D02*
X126340404Y-109054380D01*
X126578500Y-109054380D01*
X126721357Y-109102000D01*
X126816595Y-109197238D01*
X126864214Y-109292476D01*
X126911833Y-109482952D01*
X126911833Y-109625809D01*
X126864214Y-109816285D01*
X126816595Y-109911523D01*
X126721357Y-110006761D01*
X126578500Y-110054380D01*
X126340404Y-110054380D01*
X127864214Y-110054380D02*
X127292785Y-110054380D01*
X127578500Y-110054380D02*
X127578500Y-109054380D01*
X127483261Y-109197238D01*
X127388023Y-109292476D01*
X127292785Y-109340095D01*
X126340404Y-106498380D02*
X126340404Y-105498380D01*
X126578500Y-105498380D01*
X126721357Y-105546000D01*
X126816595Y-105641238D01*
X126864214Y-105736476D01*
X126911833Y-105926952D01*
X126911833Y-106069809D01*
X126864214Y-106260285D01*
X126816595Y-106355523D01*
X126721357Y-106450761D01*
X126578500Y-106498380D01*
X126340404Y-106498380D01*
X127292785Y-105593619D02*
X127340404Y-105546000D01*
X127435642Y-105498380D01*
X127673738Y-105498380D01*
X127768976Y-105546000D01*
X127816595Y-105593619D01*
X127864214Y-105688857D01*
X127864214Y-105784095D01*
X127816595Y-105926952D01*
X127245166Y-106498380D01*
X127864214Y-106498380D01*
X111235833Y-107260380D02*
X110902500Y-106784190D01*
X110664404Y-107260380D02*
X110664404Y-106260380D01*
X111045357Y-106260380D01*
X111140595Y-106308000D01*
X111188214Y-106355619D01*
X111235833Y-106450857D01*
X111235833Y-106593714D01*
X111188214Y-106688952D01*
X111140595Y-106736571D01*
X111045357Y-106784190D01*
X110664404Y-106784190D01*
X112188214Y-107260380D02*
X111616785Y-107260380D01*
X111902500Y-107260380D02*
X111902500Y-106260380D01*
X111807261Y-106403238D01*
X111712023Y-106498476D01*
X111616785Y-106546095D01*
X110235833Y-110560380D02*
X109664404Y-110560380D01*
X109950119Y-110560380D02*
X109950119Y-109560380D01*
X109854880Y-109703238D01*
X109759642Y-109798476D01*
X109664404Y-109846095D01*
X110854880Y-109560380D02*
X110950119Y-109560380D01*
X111045357Y-109608000D01*
X111092976Y-109655619D01*
X111140595Y-109750857D01*
X111188214Y-109941333D01*
X111188214Y-110179428D01*
X111140595Y-110369904D01*
X111092976Y-110465142D01*
X111045357Y-110512761D01*
X110950119Y-110560380D01*
X110854880Y-110560380D01*
X110759642Y-110512761D01*
X110712023Y-110465142D01*
X110664404Y-110369904D01*
X110616785Y-110179428D01*
X110616785Y-109941333D01*
X110664404Y-109750857D01*
X110712023Y-109655619D01*
X110759642Y-109608000D01*
X110854880Y-109560380D01*
X111616785Y-110560380D02*
X111616785Y-109560380D01*
X111712023Y-110179428D02*
X111997738Y-110560380D01*
X111997738Y-109893714D02*
X111616785Y-110274666D01*
X112378690Y-110560380D02*
X112616785Y-110560380D01*
X112616785Y-110369904D01*
X112521547Y-110322285D01*
X112426309Y-110227047D01*
X112378690Y-110084190D01*
X112378690Y-109846095D01*
X112426309Y-109703238D01*
X112521547Y-109608000D01*
X112664404Y-109560380D01*
X112854880Y-109560380D01*
X112997738Y-109608000D01*
X113092976Y-109703238D01*
X113140595Y-109846095D01*
X113140595Y-110084190D01*
X113092976Y-110227047D01*
X112997738Y-110322285D01*
X112902500Y-110369904D01*
X112902500Y-110560380D01*
X113140595Y-110560380D01*
X116823833Y-107260380D02*
X116490500Y-106784190D01*
X116252404Y-107260380D02*
X116252404Y-106260380D01*
X116633357Y-106260380D01*
X116728595Y-106308000D01*
X116776214Y-106355619D01*
X116823833Y-106450857D01*
X116823833Y-106593714D01*
X116776214Y-106688952D01*
X116728595Y-106736571D01*
X116633357Y-106784190D01*
X116252404Y-106784190D01*
X117204785Y-106355619D02*
X117252404Y-106308000D01*
X117347642Y-106260380D01*
X117585738Y-106260380D01*
X117680976Y-106308000D01*
X117728595Y-106355619D01*
X117776214Y-106450857D01*
X117776214Y-106546095D01*
X117728595Y-106688952D01*
X117157166Y-107260380D01*
X117776214Y-107260380D01*
X115823833Y-110560380D02*
X115252404Y-110560380D01*
X115538119Y-110560380D02*
X115538119Y-109560380D01*
X115442880Y-109703238D01*
X115347642Y-109798476D01*
X115252404Y-109846095D01*
X116442880Y-109560380D02*
X116538119Y-109560380D01*
X116633357Y-109608000D01*
X116680976Y-109655619D01*
X116728595Y-109750857D01*
X116776214Y-109941333D01*
X116776214Y-110179428D01*
X116728595Y-110369904D01*
X116680976Y-110465142D01*
X116633357Y-110512761D01*
X116538119Y-110560380D01*
X116442880Y-110560380D01*
X116347642Y-110512761D01*
X116300023Y-110465142D01*
X116252404Y-110369904D01*
X116204785Y-110179428D01*
X116204785Y-109941333D01*
X116252404Y-109750857D01*
X116300023Y-109655619D01*
X116347642Y-109608000D01*
X116442880Y-109560380D01*
X117204785Y-110560380D02*
X117204785Y-109560380D01*
X117300023Y-110179428D02*
X117585738Y-110560380D01*
X117585738Y-109893714D02*
X117204785Y-110274666D01*
X117966690Y-110560380D02*
X118204785Y-110560380D01*
X118204785Y-110369904D01*
X118109547Y-110322285D01*
X118014309Y-110227047D01*
X117966690Y-110084190D01*
X117966690Y-109846095D01*
X118014309Y-109703238D01*
X118109547Y-109608000D01*
X118252404Y-109560380D01*
X118442880Y-109560380D01*
X118585738Y-109608000D01*
X118680976Y-109703238D01*
X118728595Y-109846095D01*
X118728595Y-110084190D01*
X118680976Y-110227047D01*
X118585738Y-110322285D01*
X118490500Y-110369904D01*
X118490500Y-110560380D01*
X118728595Y-110560380D01*
X123785333Y-110180380D02*
X123452000Y-109704190D01*
X123213904Y-110180380D02*
X123213904Y-109180380D01*
X123594857Y-109180380D01*
X123690095Y-109228000D01*
X123737714Y-109275619D01*
X123785333Y-109370857D01*
X123785333Y-109513714D01*
X123737714Y-109608952D01*
X123690095Y-109656571D01*
X123594857Y-109704190D01*
X123213904Y-109704190D01*
X124118666Y-109180380D02*
X124737714Y-109180380D01*
X124404380Y-109561333D01*
X124547238Y-109561333D01*
X124642476Y-109608952D01*
X124690095Y-109656571D01*
X124737714Y-109751809D01*
X124737714Y-109989904D01*
X124690095Y-110085142D01*
X124642476Y-110132761D01*
X124547238Y-110180380D01*
X124261523Y-110180380D01*
X124166285Y-110132761D01*
X124118666Y-110085142D01*
X120229380Y-113617142D02*
X120229380Y-112998095D01*
X120610333Y-113331428D01*
X120610333Y-113188571D01*
X120657952Y-113093333D01*
X120705571Y-113045714D01*
X120800809Y-112998095D01*
X121038904Y-112998095D01*
X121134142Y-113045714D01*
X121181761Y-113093333D01*
X121229380Y-113188571D01*
X121229380Y-113474285D01*
X121181761Y-113569523D01*
X121134142Y-113617142D01*
X120229380Y-112664761D02*
X120229380Y-112045714D01*
X120610333Y-112379047D01*
X120610333Y-112236190D01*
X120657952Y-112140952D01*
X120705571Y-112093333D01*
X120800809Y-112045714D01*
X121038904Y-112045714D01*
X121134142Y-112093333D01*
X121181761Y-112140952D01*
X121229380Y-112236190D01*
X121229380Y-112521904D01*
X121181761Y-112617142D01*
X121134142Y-112664761D01*
X120229380Y-111426666D02*
X120229380Y-111331428D01*
X120277000Y-111236190D01*
X120324619Y-111188571D01*
X120419857Y-111140952D01*
X120610333Y-111093333D01*
X120848428Y-111093333D01*
X121038904Y-111140952D01*
X121134142Y-111188571D01*
X121181761Y-111236190D01*
X121229380Y-111331428D01*
X121229380Y-111426666D01*
X121181761Y-111521904D01*
X121134142Y-111569523D01*
X121038904Y-111617142D01*
X120848428Y-111664761D01*
X120610333Y-111664761D01*
X120419857Y-111617142D01*
X120324619Y-111569523D01*
X120277000Y-111521904D01*
X120229380Y-111426666D01*
X121229380Y-110712380D02*
X121229380Y-110474285D01*
X121038904Y-110474285D01*
X120991285Y-110569523D01*
X120896047Y-110664761D01*
X120753190Y-110712380D01*
X120515095Y-110712380D01*
X120372238Y-110664761D01*
X120277000Y-110569523D01*
X120229380Y-110426666D01*
X120229380Y-110236190D01*
X120277000Y-110093333D01*
X120372238Y-109998095D01*
X120515095Y-109950476D01*
X120753190Y-109950476D01*
X120896047Y-109998095D01*
X120991285Y-110093333D01*
X121038904Y-110188571D01*
X121229380Y-110188571D01*
X121229380Y-109950476D01*
X123785333Y-106624380D02*
X123452000Y-106148190D01*
X123213904Y-106624380D02*
X123213904Y-105624380D01*
X123594857Y-105624380D01*
X123690095Y-105672000D01*
X123737714Y-105719619D01*
X123785333Y-105814857D01*
X123785333Y-105957714D01*
X123737714Y-106052952D01*
X123690095Y-106100571D01*
X123594857Y-106148190D01*
X123213904Y-106148190D01*
X124642476Y-105957714D02*
X124642476Y-106624380D01*
X124404380Y-105576761D02*
X124166285Y-106291047D01*
X124785333Y-106291047D01*
X120229380Y-109299142D02*
X120229380Y-108680095D01*
X120610333Y-109013428D01*
X120610333Y-108870571D01*
X120657952Y-108775333D01*
X120705571Y-108727714D01*
X120800809Y-108680095D01*
X121038904Y-108680095D01*
X121134142Y-108727714D01*
X121181761Y-108775333D01*
X121229380Y-108870571D01*
X121229380Y-109156285D01*
X121181761Y-109251523D01*
X121134142Y-109299142D01*
X120229380Y-108346761D02*
X120229380Y-107727714D01*
X120610333Y-108061047D01*
X120610333Y-107918190D01*
X120657952Y-107822952D01*
X120705571Y-107775333D01*
X120800809Y-107727714D01*
X121038904Y-107727714D01*
X121134142Y-107775333D01*
X121181761Y-107822952D01*
X121229380Y-107918190D01*
X121229380Y-108203904D01*
X121181761Y-108299142D01*
X121134142Y-108346761D01*
X120229380Y-107108666D02*
X120229380Y-107013428D01*
X120277000Y-106918190D01*
X120324619Y-106870571D01*
X120419857Y-106822952D01*
X120610333Y-106775333D01*
X120848428Y-106775333D01*
X121038904Y-106822952D01*
X121134142Y-106870571D01*
X121181761Y-106918190D01*
X121229380Y-107013428D01*
X121229380Y-107108666D01*
X121181761Y-107203904D01*
X121134142Y-107251523D01*
X121038904Y-107299142D01*
X120848428Y-107346761D01*
X120610333Y-107346761D01*
X120419857Y-107299142D01*
X120324619Y-107251523D01*
X120277000Y-107203904D01*
X120229380Y-107108666D01*
X121229380Y-106394380D02*
X121229380Y-106156285D01*
X121038904Y-106156285D01*
X120991285Y-106251523D01*
X120896047Y-106346761D01*
X120753190Y-106394380D01*
X120515095Y-106394380D01*
X120372238Y-106346761D01*
X120277000Y-106251523D01*
X120229380Y-106108666D01*
X120229380Y-105918190D01*
X120277000Y-105775333D01*
X120372238Y-105680095D01*
X120515095Y-105632476D01*
X120753190Y-105632476D01*
X120896047Y-105680095D01*
X120991285Y-105775333D01*
X121038904Y-105870571D01*
X121229380Y-105870571D01*
X121229380Y-105632476D01*
X128274380Y-116839904D02*
X129083904Y-116839904D01*
X129179142Y-116792285D01*
X129226761Y-116744666D01*
X129274380Y-116649428D01*
X129274380Y-116458952D01*
X129226761Y-116363714D01*
X129179142Y-116316095D01*
X129083904Y-116268476D01*
X128274380Y-116268476D01*
X129274380Y-115268476D02*
X129274380Y-115839904D01*
X129274380Y-115554190D02*
X128274380Y-115554190D01*
X128417238Y-115649428D01*
X128512476Y-115744666D01*
X128560095Y-115839904D01*
X106342380Y-102695333D02*
X107056666Y-102695333D01*
X107199523Y-102742952D01*
X107294761Y-102838190D01*
X107342380Y-102981047D01*
X107342380Y-103076285D01*
X107342380Y-101695333D02*
X107342380Y-102266761D01*
X107342380Y-101981047D02*
X106342380Y-101981047D01*
X106485238Y-102076285D01*
X106580476Y-102171523D01*
X106628095Y-102266761D01*
M02*
