G04 #@! TF.GenerationSoftware,KiCad,Pcbnew,5.1.10-88a1d61d58~90~ubuntu20.04.1*
G04 #@! TF.CreationDate,2021-08-20T19:04:53-03:00*
G04 #@! TF.ProjectId,003_Raspberry_Pi_HAT,3030335f-5261-4737-9062-657272795f50,V1*
G04 #@! TF.SameCoordinates,Original*
G04 #@! TF.FileFunction,Copper,L1,Top*
G04 #@! TF.FilePolarity,Positive*
%FSLAX46Y46*%
G04 Gerber Fmt 4.6, Leading zero omitted, Abs format (unit mm)*
G04 Created by KiCad (PCBNEW 5.1.10-88a1d61d58~90~ubuntu20.04.1) date 2021-08-20 19:04:53*
%MOMM*%
%LPD*%
G01*
G04 APERTURE LIST*
G04 #@! TA.AperFunction,ComponentPad*
%ADD10O,1.524000X1.524000*%
G04 #@! TD*
G04 #@! TA.AperFunction,ComponentPad*
%ADD11R,1.700000X1.700000*%
G04 #@! TD*
G04 #@! TA.AperFunction,ComponentPad*
%ADD12O,1.700000X1.700000*%
G04 #@! TD*
G04 #@! TA.AperFunction,ViaPad*
%ADD13C,1.000000*%
G04 #@! TD*
G04 #@! TA.AperFunction,Conductor*
%ADD14C,0.250000*%
G04 #@! TD*
G04 #@! TA.AperFunction,Conductor*
%ADD15C,0.300000*%
G04 #@! TD*
G04 APERTURE END LIST*
G04 #@! TA.AperFunction,SMDPad,CuDef*
G36*
G01*
X125653500Y-111708250D02*
X125653500Y-110795750D01*
G75*
G02*
X125897250Y-110552000I243750J0D01*
G01*
X126384750Y-110552000D01*
G75*
G02*
X126628500Y-110795750I0J-243750D01*
G01*
X126628500Y-111708250D01*
G75*
G02*
X126384750Y-111952000I-243750J0D01*
G01*
X125897250Y-111952000D01*
G75*
G02*
X125653500Y-111708250I0J243750D01*
G01*
G37*
G04 #@! TD.AperFunction*
G04 #@! TA.AperFunction,SMDPad,CuDef*
G36*
G01*
X127528500Y-111708250D02*
X127528500Y-110795750D01*
G75*
G02*
X127772250Y-110552000I243750J0D01*
G01*
X128259750Y-110552000D01*
G75*
G02*
X128503500Y-110795750I0J-243750D01*
G01*
X128503500Y-111708250D01*
G75*
G02*
X128259750Y-111952000I-243750J0D01*
G01*
X127772250Y-111952000D01*
G75*
G02*
X127528500Y-111708250I0J243750D01*
G01*
G37*
G04 #@! TD.AperFunction*
G04 #@! TA.AperFunction,SMDPad,CuDef*
G36*
G01*
X127528500Y-108152250D02*
X127528500Y-107239750D01*
G75*
G02*
X127772250Y-106996000I243750J0D01*
G01*
X128259750Y-106996000D01*
G75*
G02*
X128503500Y-107239750I0J-243750D01*
G01*
X128503500Y-108152250D01*
G75*
G02*
X128259750Y-108396000I-243750J0D01*
G01*
X127772250Y-108396000D01*
G75*
G02*
X127528500Y-108152250I0J243750D01*
G01*
G37*
G04 #@! TD.AperFunction*
G04 #@! TA.AperFunction,SMDPad,CuDef*
G36*
G01*
X125653500Y-108152250D02*
X125653500Y-107239750D01*
G75*
G02*
X125897250Y-106996000I243750J0D01*
G01*
X126384750Y-106996000D01*
G75*
G02*
X126628500Y-107239750I0J-243750D01*
G01*
X126628500Y-108152250D01*
G75*
G02*
X126384750Y-108396000I-243750J0D01*
G01*
X125897250Y-108396000D01*
G75*
G02*
X125653500Y-108152250I0J243750D01*
G01*
G37*
G04 #@! TD.AperFunction*
G04 #@! TA.AperFunction,SMDPad,CuDef*
G36*
G01*
X111802500Y-108908001D02*
X111802500Y-108007999D01*
G75*
G02*
X112052499Y-107758000I249999J0D01*
G01*
X112577501Y-107758000D01*
G75*
G02*
X112827500Y-108007999I0J-249999D01*
G01*
X112827500Y-108908001D01*
G75*
G02*
X112577501Y-109158000I-249999J0D01*
G01*
X112052499Y-109158000D01*
G75*
G02*
X111802500Y-108908001I0J249999D01*
G01*
G37*
G04 #@! TD.AperFunction*
G04 #@! TA.AperFunction,SMDPad,CuDef*
G36*
G01*
X109977500Y-108908001D02*
X109977500Y-108007999D01*
G75*
G02*
X110227499Y-107758000I249999J0D01*
G01*
X110752501Y-107758000D01*
G75*
G02*
X111002500Y-108007999I0J-249999D01*
G01*
X111002500Y-108908001D01*
G75*
G02*
X110752501Y-109158000I-249999J0D01*
G01*
X110227499Y-109158000D01*
G75*
G02*
X109977500Y-108908001I0J249999D01*
G01*
G37*
G04 #@! TD.AperFunction*
G04 #@! TA.AperFunction,SMDPad,CuDef*
G36*
G01*
X115565500Y-108908001D02*
X115565500Y-108007999D01*
G75*
G02*
X115815499Y-107758000I249999J0D01*
G01*
X116340501Y-107758000D01*
G75*
G02*
X116590500Y-108007999I0J-249999D01*
G01*
X116590500Y-108908001D01*
G75*
G02*
X116340501Y-109158000I-249999J0D01*
G01*
X115815499Y-109158000D01*
G75*
G02*
X115565500Y-108908001I0J249999D01*
G01*
G37*
G04 #@! TD.AperFunction*
G04 #@! TA.AperFunction,SMDPad,CuDef*
G36*
G01*
X117390500Y-108908001D02*
X117390500Y-108007999D01*
G75*
G02*
X117640499Y-107758000I249999J0D01*
G01*
X118165501Y-107758000D01*
G75*
G02*
X118415500Y-108007999I0J-249999D01*
G01*
X118415500Y-108908001D01*
G75*
G02*
X118165501Y-109158000I-249999J0D01*
G01*
X117640499Y-109158000D01*
G75*
G02*
X117390500Y-108908001I0J249999D01*
G01*
G37*
G04 #@! TD.AperFunction*
G04 #@! TA.AperFunction,SMDPad,CuDef*
G36*
G01*
X122893500Y-110801999D02*
X122893500Y-111702001D01*
G75*
G02*
X122643501Y-111952000I-249999J0D01*
G01*
X122118499Y-111952000D01*
G75*
G02*
X121868500Y-111702001I0J249999D01*
G01*
X121868500Y-110801999D01*
G75*
G02*
X122118499Y-110552000I249999J0D01*
G01*
X122643501Y-110552000D01*
G75*
G02*
X122893500Y-110801999I0J-249999D01*
G01*
G37*
G04 #@! TD.AperFunction*
G04 #@! TA.AperFunction,SMDPad,CuDef*
G36*
G01*
X124718500Y-110801999D02*
X124718500Y-111702001D01*
G75*
G02*
X124468501Y-111952000I-249999J0D01*
G01*
X123943499Y-111952000D01*
G75*
G02*
X123693500Y-111702001I0J249999D01*
G01*
X123693500Y-110801999D01*
G75*
G02*
X123943499Y-110552000I249999J0D01*
G01*
X124468501Y-110552000D01*
G75*
G02*
X124718500Y-110801999I0J-249999D01*
G01*
G37*
G04 #@! TD.AperFunction*
G04 #@! TA.AperFunction,SMDPad,CuDef*
G36*
G01*
X124765500Y-107245999D02*
X124765500Y-108146001D01*
G75*
G02*
X124515501Y-108396000I-249999J0D01*
G01*
X123990499Y-108396000D01*
G75*
G02*
X123740500Y-108146001I0J249999D01*
G01*
X123740500Y-107245999D01*
G75*
G02*
X123990499Y-106996000I249999J0D01*
G01*
X124515501Y-106996000D01*
G75*
G02*
X124765500Y-107245999I0J-249999D01*
G01*
G37*
G04 #@! TD.AperFunction*
G04 #@! TA.AperFunction,SMDPad,CuDef*
G36*
G01*
X122940500Y-107245999D02*
X122940500Y-108146001D01*
G75*
G02*
X122690501Y-108396000I-249999J0D01*
G01*
X122165499Y-108396000D01*
G75*
G02*
X121915500Y-108146001I0J249999D01*
G01*
X121915500Y-107245999D01*
G75*
G02*
X122165499Y-106996000I249999J0D01*
G01*
X122690501Y-106996000D01*
G75*
G02*
X122940500Y-107245999I0J-249999D01*
G01*
G37*
G04 #@! TD.AperFunction*
D10*
X108254800Y-112039400D03*
X114757200Y-112039400D03*
X108254800Y-116560600D03*
X114757200Y-116560600D03*
D11*
X126492000Y-116078000D03*
D12*
X123952000Y-116078000D03*
X121412000Y-116078000D03*
X118872000Y-116078000D03*
D11*
X109220000Y-103632000D03*
D12*
X109220000Y-101092000D03*
X111760000Y-103632000D03*
X111760000Y-101092000D03*
X114300000Y-103632000D03*
X114300000Y-101092000D03*
X116840000Y-103632000D03*
X116840000Y-101092000D03*
X119380000Y-103632000D03*
X119380000Y-101092000D03*
X121920000Y-103632000D03*
X121920000Y-101092000D03*
X124460000Y-103632000D03*
X124460000Y-101092000D03*
X127000000Y-103632000D03*
X127000000Y-101092000D03*
D13*
X113792000Y-108458000D03*
X122428000Y-109474000D03*
D14*
X124206000Y-111252000D02*
X126141000Y-111252000D01*
X122384001Y-102356999D02*
X123190000Y-103162998D01*
X118115001Y-102356999D02*
X122384001Y-102356999D01*
X116840000Y-103632000D02*
X118115001Y-102356999D01*
X127103490Y-107154140D02*
X127103490Y-110339490D01*
X126620340Y-106670990D02*
X127103490Y-107154140D01*
X125720990Y-106670990D02*
X126620340Y-106670990D01*
X123190000Y-104140000D02*
X125720990Y-106670990D01*
X127103490Y-110339490D02*
X128016000Y-111252000D01*
X123190000Y-103162998D02*
X123190000Y-104140000D01*
D15*
X114757200Y-112039400D02*
X108254800Y-112039400D01*
X114757200Y-109778800D02*
X116078000Y-108458000D01*
X114757200Y-112039400D02*
X114757200Y-109778800D01*
X109220000Y-103632000D02*
X112268000Y-106680000D01*
X114300000Y-106680000D02*
X116078000Y-108458000D01*
X112268000Y-106680000D02*
X114300000Y-106680000D01*
X126492000Y-116078000D02*
X127254000Y-116078000D01*
X128953510Y-108633510D02*
X128016000Y-107696000D01*
X128953510Y-114378490D02*
X128953510Y-108633510D01*
X127254000Y-116078000D02*
X128953510Y-114378490D01*
X114757200Y-113887202D02*
X114757200Y-112039400D01*
X118247999Y-117378001D02*
X114757200Y-113887202D01*
X125191999Y-117378001D02*
X118247999Y-117378001D01*
X126492000Y-116078000D02*
X125191999Y-117378001D01*
D14*
X124253000Y-107696000D02*
X126141000Y-107696000D01*
D15*
X122381000Y-111252000D02*
X121920000Y-111252000D01*
X112315000Y-108458000D02*
X113792000Y-108458000D01*
X113792000Y-108458000D02*
X113792000Y-108458000D01*
X122428000Y-111205000D02*
X122381000Y-111252000D01*
X122428000Y-107696000D02*
X122428000Y-109474000D01*
X122428000Y-109474000D02*
X122428000Y-111205000D01*
D14*
X107067799Y-111469639D02*
X110079438Y-108458000D01*
X110079438Y-108458000D02*
X110490000Y-108458000D01*
X107067799Y-115373599D02*
X107067799Y-111469639D01*
X108254800Y-116560600D02*
X107067799Y-115373599D01*
X108254800Y-116560600D02*
X114757200Y-116560600D01*
X115564999Y-99816999D02*
X116840000Y-101092000D01*
X108755999Y-99816999D02*
X115564999Y-99816999D01*
X107944999Y-100627999D02*
X108755999Y-99816999D01*
X107944999Y-105912999D02*
X107944999Y-100627999D01*
X110490000Y-108458000D02*
X107944999Y-105912999D01*
X123952000Y-116078000D02*
X121920000Y-114046000D01*
X120142000Y-114046000D02*
X117903000Y-111807000D01*
X117903000Y-111807000D02*
X117903000Y-108458000D01*
X121920000Y-114046000D02*
X120142000Y-114046000D01*
X117903000Y-107649000D02*
X121920000Y-103632000D01*
X117903000Y-108458000D02*
X117903000Y-107649000D01*
M02*
