M48
INCH
T1C0.0315
T2C0.0394
T3C0.0400
%
G90
G05
T1
X4.48Y-4.27
X4.82Y-4.31
T2
X4.3Y-3.98
X4.3Y-4.08
X4.4Y-3.98
X4.4Y-4.08
X4.5Y-3.98
X4.5Y-4.08
X4.6Y-3.98
X4.6Y-4.08
X4.68Y-4.57
X4.7Y-3.98
X4.7Y-4.08
X4.78Y-4.57
X4.8Y-3.98
X4.8Y-4.08
X4.88Y-4.57
X4.9Y-3.98
X4.9Y-4.08
X4.98Y-4.57
X5.0Y-3.98
X5.0Y-4.08
T3
X4.262Y-4.411
X4.262Y-4.589
X4.518Y-4.411
X4.518Y-4.589
T0
M30
