G04 #@! TF.GenerationSoftware,KiCad,Pcbnew,5.1.10-88a1d61d58~90~ubuntu20.04.1*
G04 #@! TF.CreationDate,2021-08-20T19:04:53-03:00*
G04 #@! TF.ProjectId,003_Raspberry_Pi_HAT,3030335f-5261-4737-9062-657272795f50,V1*
G04 #@! TF.SameCoordinates,Original*
G04 #@! TF.FileFunction,Legend,Bot*
G04 #@! TF.FilePolarity,Positive*
%FSLAX46Y46*%
G04 Gerber Fmt 4.6, Leading zero omitted, Abs format (unit mm)*
G04 Created by KiCad (PCBNEW 5.1.10-88a1d61d58~90~ubuntu20.04.1) date 2021-08-20 19:04:53*
%MOMM*%
%LPD*%
G01*
G04 APERTURE LIST*
%ADD10C,0.010000*%
G04 APERTURE END LIST*
D10*
G36*
X124444536Y-112619573D02*
G01*
X124557118Y-112022382D01*
X124972531Y-111851135D01*
X125387945Y-111679888D01*
X125886302Y-112018767D01*
X126025869Y-112113123D01*
X126152029Y-112197370D01*
X126258896Y-112267662D01*
X126340583Y-112320153D01*
X126391202Y-112350996D01*
X126404987Y-112357647D01*
X126429821Y-112340542D01*
X126482889Y-112293256D01*
X126558241Y-112221828D01*
X126649930Y-112132300D01*
X126752008Y-112030711D01*
X126858527Y-111923102D01*
X126963537Y-111815513D01*
X127061092Y-111713985D01*
X127145243Y-111624559D01*
X127210041Y-111553274D01*
X127249538Y-111506172D01*
X127258981Y-111490408D01*
X127245392Y-111461347D01*
X127207294Y-111397679D01*
X127148694Y-111305633D01*
X127073598Y-111191436D01*
X126986009Y-111061316D01*
X126935255Y-110987099D01*
X126842746Y-110851578D01*
X126760541Y-110729284D01*
X126692631Y-110626305D01*
X126643001Y-110548727D01*
X126615641Y-110502639D01*
X126611530Y-110492953D01*
X126620850Y-110465426D01*
X126646255Y-110401272D01*
X126683912Y-110309510D01*
X126729987Y-110199161D01*
X126780647Y-110079245D01*
X126832060Y-109958781D01*
X126880390Y-109846791D01*
X126921807Y-109752293D01*
X126952475Y-109684308D01*
X126968562Y-109651857D01*
X126969512Y-109650580D01*
X126994773Y-109644383D01*
X127062046Y-109630560D01*
X127164361Y-109610468D01*
X127294742Y-109585466D01*
X127446217Y-109556914D01*
X127534594Y-109540449D01*
X127696453Y-109509631D01*
X127842650Y-109480306D01*
X127965788Y-109454079D01*
X128058470Y-109432554D01*
X128113302Y-109417335D01*
X128124324Y-109412507D01*
X128135119Y-109379826D01*
X128143830Y-109306015D01*
X128150461Y-109199708D01*
X128155019Y-109069533D01*
X128157510Y-108924124D01*
X128157939Y-108772110D01*
X128156312Y-108622123D01*
X128152636Y-108482794D01*
X128146916Y-108362755D01*
X128139158Y-108270635D01*
X128129369Y-108215068D01*
X128123497Y-108203500D01*
X128088400Y-108189635D01*
X128014029Y-108169812D01*
X127910224Y-108146361D01*
X127786820Y-108121609D01*
X127743742Y-108113602D01*
X127536048Y-108075559D01*
X127371985Y-108044921D01*
X127246131Y-108020471D01*
X127153066Y-108000991D01*
X127087368Y-107985264D01*
X127043618Y-107972072D01*
X127016393Y-107960196D01*
X127000273Y-107948420D01*
X126998018Y-107946092D01*
X126975504Y-107908600D01*
X126941159Y-107835635D01*
X126898412Y-107736133D01*
X126850693Y-107619027D01*
X126801431Y-107493252D01*
X126754056Y-107367743D01*
X126711996Y-107251435D01*
X126678681Y-107153261D01*
X126657542Y-107082157D01*
X126652006Y-107047058D01*
X126652467Y-107045828D01*
X126671224Y-107017139D01*
X126713777Y-106954015D01*
X126775654Y-106863027D01*
X126852383Y-106750745D01*
X126939492Y-106623740D01*
X126964299Y-106587647D01*
X127052753Y-106456797D01*
X127130589Y-106337409D01*
X127193567Y-106236338D01*
X127237446Y-106160441D01*
X127257986Y-106116573D01*
X127258981Y-106111183D01*
X127241723Y-106082856D01*
X127194036Y-106026739D01*
X127122051Y-105948863D01*
X127031898Y-105855260D01*
X126929706Y-105751959D01*
X126821606Y-105644994D01*
X126713729Y-105540394D01*
X126612205Y-105444191D01*
X126523163Y-105362416D01*
X126452734Y-105301100D01*
X126407048Y-105266274D01*
X126394410Y-105260588D01*
X126364992Y-105273980D01*
X126304762Y-105310101D01*
X126223530Y-105362864D01*
X126161031Y-105405333D01*
X126047786Y-105483260D01*
X125913675Y-105575016D01*
X125779156Y-105666625D01*
X125706834Y-105715654D01*
X125462039Y-105881230D01*
X125256551Y-105770125D01*
X125162937Y-105721452D01*
X125083331Y-105683619D01*
X125029468Y-105662042D01*
X125015758Y-105659039D01*
X124999271Y-105681207D01*
X124966746Y-105743851D01*
X124920609Y-105841191D01*
X124863291Y-105967451D01*
X124797217Y-106116850D01*
X124724816Y-106283612D01*
X124648517Y-106461958D01*
X124570747Y-106646109D01*
X124493935Y-106830288D01*
X124420507Y-107008715D01*
X124352893Y-107175613D01*
X124293521Y-107325203D01*
X124244817Y-107451707D01*
X124209211Y-107549346D01*
X124189131Y-107612343D01*
X124185901Y-107633979D01*
X124211497Y-107661576D01*
X124267539Y-107706375D01*
X124342312Y-107759066D01*
X124348588Y-107763235D01*
X124541846Y-107917931D01*
X124697675Y-108098409D01*
X124814725Y-108298898D01*
X124891646Y-108513626D01*
X124927087Y-108736823D01*
X124919698Y-108962719D01*
X124868128Y-109185541D01*
X124771027Y-109399521D01*
X124742459Y-109446336D01*
X124593869Y-109635382D01*
X124418328Y-109787188D01*
X124221911Y-109900966D01*
X124010694Y-109975925D01*
X123790754Y-110011278D01*
X123568164Y-110006233D01*
X123349002Y-109960001D01*
X123139343Y-109871794D01*
X122945262Y-109740821D01*
X122885227Y-109687663D01*
X122732436Y-109521261D01*
X122621098Y-109346088D01*
X122544724Y-109149734D01*
X122502188Y-108955283D01*
X122491687Y-108736658D01*
X122526701Y-108516948D01*
X122603674Y-108303580D01*
X122719048Y-108103978D01*
X122869266Y-107925571D01*
X123050774Y-107775783D01*
X123074628Y-107759994D01*
X123150202Y-107708288D01*
X123207652Y-107663488D01*
X123235118Y-107634883D01*
X123235518Y-107633979D01*
X123229621Y-107603036D01*
X123206246Y-107532809D01*
X123167822Y-107429075D01*
X123116778Y-107297610D01*
X123055543Y-107144193D01*
X122986545Y-106974599D01*
X122912214Y-106794607D01*
X122834979Y-106609992D01*
X122757269Y-106426532D01*
X122681512Y-106250004D01*
X122610138Y-106086186D01*
X122545575Y-105940853D01*
X122490253Y-105819783D01*
X122446601Y-105728753D01*
X122417047Y-105673540D01*
X122405145Y-105659039D01*
X122368778Y-105670331D01*
X122300731Y-105700615D01*
X122212737Y-105744480D01*
X122164351Y-105770125D01*
X121958864Y-105881230D01*
X121714069Y-105715654D01*
X121589107Y-105630830D01*
X121452296Y-105537484D01*
X121324089Y-105449592D01*
X121259872Y-105405333D01*
X121169552Y-105344682D01*
X121093072Y-105296619D01*
X121040408Y-105267230D01*
X121023303Y-105261018D01*
X120998406Y-105277777D01*
X120943306Y-105324564D01*
X120863344Y-105396520D01*
X120763861Y-105488788D01*
X120650201Y-105596510D01*
X120578316Y-105665674D01*
X120452552Y-105789243D01*
X120343864Y-105899766D01*
X120256646Y-105992515D01*
X120195290Y-106062763D01*
X120164192Y-106105780D01*
X120161209Y-106114510D01*
X120175054Y-106147716D01*
X120213313Y-106214858D01*
X120271742Y-106309137D01*
X120346098Y-106423755D01*
X120432136Y-106551917D01*
X120456603Y-106587647D01*
X120545755Y-106717511D01*
X120625739Y-106834431D01*
X120692081Y-106931838D01*
X120740312Y-107003161D01*
X120765958Y-107041830D01*
X120768436Y-107045828D01*
X120764730Y-107076645D01*
X120745062Y-107144401D01*
X120712861Y-107240161D01*
X120671556Y-107354991D01*
X120624576Y-107479956D01*
X120575350Y-107606121D01*
X120527309Y-107724552D01*
X120483882Y-107826315D01*
X120448497Y-107902474D01*
X120424585Y-107944096D01*
X120422885Y-107946092D01*
X120408263Y-107957987D01*
X120383566Y-107969750D01*
X120343373Y-107982599D01*
X120282264Y-107997751D01*
X120194818Y-108016424D01*
X120075613Y-108039835D01*
X119919228Y-108069203D01*
X119720244Y-108105745D01*
X119677161Y-108113602D01*
X119549471Y-108138273D01*
X119438154Y-108162407D01*
X119353046Y-108183676D01*
X119303984Y-108199752D01*
X119297406Y-108203500D01*
X119286565Y-108236727D01*
X119277754Y-108310979D01*
X119270977Y-108417624D01*
X119266241Y-108548033D01*
X119263551Y-108693573D01*
X119262914Y-108845614D01*
X119264335Y-108995524D01*
X119267821Y-109134672D01*
X119273377Y-109254428D01*
X119281009Y-109346159D01*
X119290723Y-109401234D01*
X119296579Y-109412507D01*
X119329181Y-109423877D01*
X119403419Y-109442376D01*
X119511897Y-109466398D01*
X119647218Y-109494338D01*
X119801986Y-109524592D01*
X119886308Y-109540449D01*
X120046297Y-109570356D01*
X120188968Y-109597450D01*
X120307349Y-109620369D01*
X120394466Y-109637757D01*
X120443346Y-109648253D01*
X120451391Y-109650580D01*
X120464988Y-109676814D01*
X120493730Y-109740005D01*
X120533786Y-109831123D01*
X120581325Y-109941143D01*
X120632516Y-110061035D01*
X120683527Y-110181773D01*
X120730527Y-110294329D01*
X120769685Y-110389674D01*
X120797170Y-110458783D01*
X120809150Y-110492626D01*
X120809373Y-110494105D01*
X120795792Y-110520803D01*
X120757716Y-110582240D01*
X120699148Y-110672311D01*
X120624089Y-110784910D01*
X120536541Y-110913930D01*
X120485648Y-110988039D01*
X120392910Y-111123923D01*
X120310542Y-111247291D01*
X120242562Y-111351903D01*
X120192989Y-111431517D01*
X120165843Y-111479893D01*
X120161922Y-111490738D01*
X120178776Y-111515980D01*
X120225369Y-111569876D01*
X120295749Y-111646387D01*
X120383966Y-111739477D01*
X120484066Y-111843105D01*
X120590099Y-111951236D01*
X120696112Y-112057830D01*
X120796153Y-112156850D01*
X120884271Y-112242258D01*
X120954514Y-112308015D01*
X121000929Y-112348084D01*
X121016457Y-112357647D01*
X121041740Y-112344200D01*
X121102212Y-112306425D01*
X121191993Y-112248165D01*
X121305204Y-112173266D01*
X121435964Y-112085575D01*
X121534600Y-112018767D01*
X122032958Y-111679888D01*
X122448371Y-111851135D01*
X122863785Y-112022382D01*
X122976367Y-112619573D01*
X123088950Y-113216765D01*
X124331953Y-113216765D01*
X124444536Y-112619573D01*
G37*
X124444536Y-112619573D02*
X124557118Y-112022382D01*
X124972531Y-111851135D01*
X125387945Y-111679888D01*
X125886302Y-112018767D01*
X126025869Y-112113123D01*
X126152029Y-112197370D01*
X126258896Y-112267662D01*
X126340583Y-112320153D01*
X126391202Y-112350996D01*
X126404987Y-112357647D01*
X126429821Y-112340542D01*
X126482889Y-112293256D01*
X126558241Y-112221828D01*
X126649930Y-112132300D01*
X126752008Y-112030711D01*
X126858527Y-111923102D01*
X126963537Y-111815513D01*
X127061092Y-111713985D01*
X127145243Y-111624559D01*
X127210041Y-111553274D01*
X127249538Y-111506172D01*
X127258981Y-111490408D01*
X127245392Y-111461347D01*
X127207294Y-111397679D01*
X127148694Y-111305633D01*
X127073598Y-111191436D01*
X126986009Y-111061316D01*
X126935255Y-110987099D01*
X126842746Y-110851578D01*
X126760541Y-110729284D01*
X126692631Y-110626305D01*
X126643001Y-110548727D01*
X126615641Y-110502639D01*
X126611530Y-110492953D01*
X126620850Y-110465426D01*
X126646255Y-110401272D01*
X126683912Y-110309510D01*
X126729987Y-110199161D01*
X126780647Y-110079245D01*
X126832060Y-109958781D01*
X126880390Y-109846791D01*
X126921807Y-109752293D01*
X126952475Y-109684308D01*
X126968562Y-109651857D01*
X126969512Y-109650580D01*
X126994773Y-109644383D01*
X127062046Y-109630560D01*
X127164361Y-109610468D01*
X127294742Y-109585466D01*
X127446217Y-109556914D01*
X127534594Y-109540449D01*
X127696453Y-109509631D01*
X127842650Y-109480306D01*
X127965788Y-109454079D01*
X128058470Y-109432554D01*
X128113302Y-109417335D01*
X128124324Y-109412507D01*
X128135119Y-109379826D01*
X128143830Y-109306015D01*
X128150461Y-109199708D01*
X128155019Y-109069533D01*
X128157510Y-108924124D01*
X128157939Y-108772110D01*
X128156312Y-108622123D01*
X128152636Y-108482794D01*
X128146916Y-108362755D01*
X128139158Y-108270635D01*
X128129369Y-108215068D01*
X128123497Y-108203500D01*
X128088400Y-108189635D01*
X128014029Y-108169812D01*
X127910224Y-108146361D01*
X127786820Y-108121609D01*
X127743742Y-108113602D01*
X127536048Y-108075559D01*
X127371985Y-108044921D01*
X127246131Y-108020471D01*
X127153066Y-108000991D01*
X127087368Y-107985264D01*
X127043618Y-107972072D01*
X127016393Y-107960196D01*
X127000273Y-107948420D01*
X126998018Y-107946092D01*
X126975504Y-107908600D01*
X126941159Y-107835635D01*
X126898412Y-107736133D01*
X126850693Y-107619027D01*
X126801431Y-107493252D01*
X126754056Y-107367743D01*
X126711996Y-107251435D01*
X126678681Y-107153261D01*
X126657542Y-107082157D01*
X126652006Y-107047058D01*
X126652467Y-107045828D01*
X126671224Y-107017139D01*
X126713777Y-106954015D01*
X126775654Y-106863027D01*
X126852383Y-106750745D01*
X126939492Y-106623740D01*
X126964299Y-106587647D01*
X127052753Y-106456797D01*
X127130589Y-106337409D01*
X127193567Y-106236338D01*
X127237446Y-106160441D01*
X127257986Y-106116573D01*
X127258981Y-106111183D01*
X127241723Y-106082856D01*
X127194036Y-106026739D01*
X127122051Y-105948863D01*
X127031898Y-105855260D01*
X126929706Y-105751959D01*
X126821606Y-105644994D01*
X126713729Y-105540394D01*
X126612205Y-105444191D01*
X126523163Y-105362416D01*
X126452734Y-105301100D01*
X126407048Y-105266274D01*
X126394410Y-105260588D01*
X126364992Y-105273980D01*
X126304762Y-105310101D01*
X126223530Y-105362864D01*
X126161031Y-105405333D01*
X126047786Y-105483260D01*
X125913675Y-105575016D01*
X125779156Y-105666625D01*
X125706834Y-105715654D01*
X125462039Y-105881230D01*
X125256551Y-105770125D01*
X125162937Y-105721452D01*
X125083331Y-105683619D01*
X125029468Y-105662042D01*
X125015758Y-105659039D01*
X124999271Y-105681207D01*
X124966746Y-105743851D01*
X124920609Y-105841191D01*
X124863291Y-105967451D01*
X124797217Y-106116850D01*
X124724816Y-106283612D01*
X124648517Y-106461958D01*
X124570747Y-106646109D01*
X124493935Y-106830288D01*
X124420507Y-107008715D01*
X124352893Y-107175613D01*
X124293521Y-107325203D01*
X124244817Y-107451707D01*
X124209211Y-107549346D01*
X124189131Y-107612343D01*
X124185901Y-107633979D01*
X124211497Y-107661576D01*
X124267539Y-107706375D01*
X124342312Y-107759066D01*
X124348588Y-107763235D01*
X124541846Y-107917931D01*
X124697675Y-108098409D01*
X124814725Y-108298898D01*
X124891646Y-108513626D01*
X124927087Y-108736823D01*
X124919698Y-108962719D01*
X124868128Y-109185541D01*
X124771027Y-109399521D01*
X124742459Y-109446336D01*
X124593869Y-109635382D01*
X124418328Y-109787188D01*
X124221911Y-109900966D01*
X124010694Y-109975925D01*
X123790754Y-110011278D01*
X123568164Y-110006233D01*
X123349002Y-109960001D01*
X123139343Y-109871794D01*
X122945262Y-109740821D01*
X122885227Y-109687663D01*
X122732436Y-109521261D01*
X122621098Y-109346088D01*
X122544724Y-109149734D01*
X122502188Y-108955283D01*
X122491687Y-108736658D01*
X122526701Y-108516948D01*
X122603674Y-108303580D01*
X122719048Y-108103978D01*
X122869266Y-107925571D01*
X123050774Y-107775783D01*
X123074628Y-107759994D01*
X123150202Y-107708288D01*
X123207652Y-107663488D01*
X123235118Y-107634883D01*
X123235518Y-107633979D01*
X123229621Y-107603036D01*
X123206246Y-107532809D01*
X123167822Y-107429075D01*
X123116778Y-107297610D01*
X123055543Y-107144193D01*
X122986545Y-106974599D01*
X122912214Y-106794607D01*
X122834979Y-106609992D01*
X122757269Y-106426532D01*
X122681512Y-106250004D01*
X122610138Y-106086186D01*
X122545575Y-105940853D01*
X122490253Y-105819783D01*
X122446601Y-105728753D01*
X122417047Y-105673540D01*
X122405145Y-105659039D01*
X122368778Y-105670331D01*
X122300731Y-105700615D01*
X122212737Y-105744480D01*
X122164351Y-105770125D01*
X121958864Y-105881230D01*
X121714069Y-105715654D01*
X121589107Y-105630830D01*
X121452296Y-105537484D01*
X121324089Y-105449592D01*
X121259872Y-105405333D01*
X121169552Y-105344682D01*
X121093072Y-105296619D01*
X121040408Y-105267230D01*
X121023303Y-105261018D01*
X120998406Y-105277777D01*
X120943306Y-105324564D01*
X120863344Y-105396520D01*
X120763861Y-105488788D01*
X120650201Y-105596510D01*
X120578316Y-105665674D01*
X120452552Y-105789243D01*
X120343864Y-105899766D01*
X120256646Y-105992515D01*
X120195290Y-106062763D01*
X120164192Y-106105780D01*
X120161209Y-106114510D01*
X120175054Y-106147716D01*
X120213313Y-106214858D01*
X120271742Y-106309137D01*
X120346098Y-106423755D01*
X120432136Y-106551917D01*
X120456603Y-106587647D01*
X120545755Y-106717511D01*
X120625739Y-106834431D01*
X120692081Y-106931838D01*
X120740312Y-107003161D01*
X120765958Y-107041830D01*
X120768436Y-107045828D01*
X120764730Y-107076645D01*
X120745062Y-107144401D01*
X120712861Y-107240161D01*
X120671556Y-107354991D01*
X120624576Y-107479956D01*
X120575350Y-107606121D01*
X120527309Y-107724552D01*
X120483882Y-107826315D01*
X120448497Y-107902474D01*
X120424585Y-107944096D01*
X120422885Y-107946092D01*
X120408263Y-107957987D01*
X120383566Y-107969750D01*
X120343373Y-107982599D01*
X120282264Y-107997751D01*
X120194818Y-108016424D01*
X120075613Y-108039835D01*
X119919228Y-108069203D01*
X119720244Y-108105745D01*
X119677161Y-108113602D01*
X119549471Y-108138273D01*
X119438154Y-108162407D01*
X119353046Y-108183676D01*
X119303984Y-108199752D01*
X119297406Y-108203500D01*
X119286565Y-108236727D01*
X119277754Y-108310979D01*
X119270977Y-108417624D01*
X119266241Y-108548033D01*
X119263551Y-108693573D01*
X119262914Y-108845614D01*
X119264335Y-108995524D01*
X119267821Y-109134672D01*
X119273377Y-109254428D01*
X119281009Y-109346159D01*
X119290723Y-109401234D01*
X119296579Y-109412507D01*
X119329181Y-109423877D01*
X119403419Y-109442376D01*
X119511897Y-109466398D01*
X119647218Y-109494338D01*
X119801986Y-109524592D01*
X119886308Y-109540449D01*
X120046297Y-109570356D01*
X120188968Y-109597450D01*
X120307349Y-109620369D01*
X120394466Y-109637757D01*
X120443346Y-109648253D01*
X120451391Y-109650580D01*
X120464988Y-109676814D01*
X120493730Y-109740005D01*
X120533786Y-109831123D01*
X120581325Y-109941143D01*
X120632516Y-110061035D01*
X120683527Y-110181773D01*
X120730527Y-110294329D01*
X120769685Y-110389674D01*
X120797170Y-110458783D01*
X120809150Y-110492626D01*
X120809373Y-110494105D01*
X120795792Y-110520803D01*
X120757716Y-110582240D01*
X120699148Y-110672311D01*
X120624089Y-110784910D01*
X120536541Y-110913930D01*
X120485648Y-110988039D01*
X120392910Y-111123923D01*
X120310542Y-111247291D01*
X120242562Y-111351903D01*
X120192989Y-111431517D01*
X120165843Y-111479893D01*
X120161922Y-111490738D01*
X120178776Y-111515980D01*
X120225369Y-111569876D01*
X120295749Y-111646387D01*
X120383966Y-111739477D01*
X120484066Y-111843105D01*
X120590099Y-111951236D01*
X120696112Y-112057830D01*
X120796153Y-112156850D01*
X120884271Y-112242258D01*
X120954514Y-112308015D01*
X121000929Y-112348084D01*
X121016457Y-112357647D01*
X121041740Y-112344200D01*
X121102212Y-112306425D01*
X121191993Y-112248165D01*
X121305204Y-112173266D01*
X121435964Y-112085575D01*
X121534600Y-112018767D01*
X122032958Y-111679888D01*
X122448371Y-111851135D01*
X122863785Y-112022382D01*
X122976367Y-112619573D01*
X123088950Y-113216765D01*
X124331953Y-113216765D01*
X124444536Y-112619573D01*
M02*
