%TF.GenerationSoftware,KiCad,Pcbnew,5.1.10-88a1d61d58~88~ubuntu20.04.1*%
%TF.CreationDate,2021-07-24T20:23:26-03:00*%
%TF.ProjectId,002_Breadboard_Power_Supply,3030325f-4272-4656-9164-626f6172645f,V1*%
%TF.SameCoordinates,Original*%
%TF.FileFunction,Soldermask,Bot*%
%TF.FilePolarity,Negative*%
%FSLAX46Y46*%
G04 Gerber Fmt 4.6, Leading zero omitted, Abs format (unit mm)*
G04 Created by KiCad (PCBNEW 5.1.10-88a1d61d58~88~ubuntu20.04.1) date 2021-07-24 20:23:26*
%MOMM*%
%LPD*%
G01*
G04 APERTURE LIST*
%ADD10R,2.000000X2.000000*%
%ADD11C,2.000000*%
%ADD12R,1.600000X1.600000*%
%ADD13C,1.600000*%
%ADD14R,2.200000X2.200000*%
%ADD15O,2.200000X2.200000*%
%ADD16R,1.800000X1.800000*%
%ADD17C,1.800000*%
%ADD18R,2.600000X2.600000*%
%ADD19C,2.600000*%
%ADD20R,1.700000X1.700000*%
%ADD21O,1.700000X1.700000*%
%ADD22O,1.600000X1.600000*%
%ADD23R,1.900000X1.900000*%
%ADD24C,1.900000*%
%ADD25R,1.905000X2.000000*%
%ADD26O,1.905000X2.000000*%
G04 APERTURE END LIST*
D10*
%TO.C,C1*%
X79883000Y-56515000D03*
D11*
X84883000Y-56515000D03*
%TD*%
D12*
%TO.C,C2*%
X92456000Y-54737000D03*
D13*
X94956000Y-54737000D03*
%TD*%
D14*
%TO.C,D1*%
X79375000Y-70866000D03*
D15*
X89535000Y-70866000D03*
%TD*%
%TO.C,D2*%
X79375000Y-74930000D03*
D14*
X89535000Y-74930000D03*
%TD*%
%TO.C,D3*%
X85598000Y-78613000D03*
D15*
X85598000Y-88773000D03*
%TD*%
%TO.C,D4*%
X79629000Y-78613000D03*
D14*
X79629000Y-88773000D03*
%TD*%
D16*
%TO.C,D5*%
X97414000Y-86868000D03*
D17*
X94874000Y-86868000D03*
%TD*%
%TO.C,D6*%
X94874000Y-64770000D03*
D16*
X97414000Y-64770000D03*
%TD*%
D18*
%TO.C,J1*%
X91059000Y-95885000D03*
D19*
X85059000Y-95885000D03*
X88059000Y-100585000D03*
%TD*%
D20*
%TO.C,J2*%
X101600000Y-52959000D03*
D21*
X104140000Y-52959000D03*
X101600000Y-55499000D03*
X104140000Y-55499000D03*
%TD*%
%TO.C,J3*%
X104140000Y-100457000D03*
X101600000Y-100457000D03*
X104140000Y-97917000D03*
D20*
X101600000Y-97917000D03*
%TD*%
D22*
%TO.C,R1*%
X89916000Y-86868000D03*
D13*
X89916000Y-79248000D03*
%TD*%
%TO.C,R2*%
X89662000Y-66548000D03*
D22*
X89662000Y-58928000D03*
%TD*%
D23*
%TO.C,SW1*%
X96139000Y-78199000D03*
D24*
X96139000Y-75699000D03*
X96139000Y-73199000D03*
%TD*%
D25*
%TO.C,U1*%
X79502000Y-66040000D03*
D26*
X82042000Y-66040000D03*
X84582000Y-66040000D03*
%TD*%
M02*
