M48
INCH
T1C0.0315
T2C0.0354
T3C0.0394
T4C0.0433
T5C0.0630
%
G90
G05
T1
X3.53Y-2.32
X3.53Y-2.62
X3.54Y-3.12
X3.54Y-3.42
X3.64Y-2.155
X3.7384Y-2.155
T2
X3.7352Y-2.55
X3.7352Y-3.42
X3.785Y-2.8819
X3.785Y-2.9803
X3.785Y-3.0787
X3.8352Y-2.55
X3.8352Y-3.42
T3
X3.145Y-2.225
X3.3419Y-2.225
X4.0Y-2.085
X4.0Y-2.185
X4.0Y-3.855
X4.0Y-3.955
X4.1Y-2.085
X4.1Y-2.185
X4.1Y-3.855
X4.1Y-3.955
T4
X3.125Y-2.79
X3.125Y-2.95
X3.13Y-2.6
X3.135Y-3.095
X3.135Y-3.495
X3.23Y-2.6
X3.33Y-2.6
X3.37Y-3.095
X3.37Y-3.495
X3.525Y-2.79
X3.525Y-2.95
T5
X3.3488Y-3.775
X3.4669Y-3.96
X3.585Y-3.775
T0
M30
